<?xml version="1.0" encoding="UTF-8" standalone="yes"?>
<svg baseProfile="tiny-ps" version="1.2" viewBox="0 0 1000 1000" xmlns="http://www.w3.org/2000/svg">
  <title>bimi-svg-tiny-12-ps</title>
  <rect x="0" y="0" width="1000" height="1000" fill="#fff"/>
  <path d="M438.8,442.7c.5,0,.8-.2,1.2-.3,6.7-3.1,18.5-29.8,22.1-37.4,8.1-17.4,16.9-36,24.2-53.6,12.5-30.2,22.3-62.3,34.5-92.7,5-8.4,6.5,1.5,6.8,6.3,1,16.7-.8,35.4-.9,52.5-.2,36.5,7.5,73.8,16.8,109.1,3.6,13.5,7.9,30.6,13.6,43.3.4,1,1.5,3.4,2,4.1.8,1,3.4.9,4.8,1.1,14.2-40.3,38.7-77.3,66.2-109.7,15.9-18.7,34.2-37.5,52.7-53.6,37.1-32.3,101.4-70.4,147.1-32.6s41.7,105.2-17.2,116.1c-11,2-38.8,3.9-48.7-.3-9.7-4.2,3.5-7.5,7.5-8.4,19.5-4.4,38.4-2,52.7-19,17.4-20.7,13-60.6-13-72.2-18.7-8.4-47-7.4-65.9.3-47.6,19.4-104.8,82.1-133.7,124.2-8.8,12.7-21.7,33-26.4,47.5-.6,1.9-2.8,8-.4,9s7.6,1.2,9.5,1.4c19.5,1.9,39.7-.7,59.5.4,52.2,3,85.2,15.1,120.7,53.8,28.9,31.5,44.1,64.5,27.1,107.1-16.8,42.2-74.5,58.4-115.7,49.7-25.8-5.4-47.1-31.4-62.9-51.3-15.1-19-25.6-37.8-37.3-58.9-8.4-15.3-15.6-31.3-25.3-45.8-2.6,5.1-6.2,9.7-8.4,15-11.1,26.5-16.5,66.2-20.8,95-3.8,25.3-8.5,54.1-9.7,79.5-.7,13.6,1,27.5-.9,41.1-.6,4.2-2.2,7.4-3.9,11.2-2.2-.5-3.2-3.2-4-5-2-4.4-3.4-9.9-4.7-14.5-6.6-24.7-9.6-50.4-15.1-75.4-4.4-19.9-10.1-40.3-15.7-59.9-9.8-33.7-20.7-68.7-31.8-102s-4.6-13.9-7.1-20c-.3-.6-1.8-3.9-2.2-3.9-1.2,1.6-2.8,3.3-3.8,4.9-12.4,20.4-21.3,43.7-33.8,64.5-33.3,55.3-85,121-153.9,129-64.3,7.4-111.5-42.2-100.1-106.3,9.2-52.1,56.3-71,102-46.3,9.7,5.2,31.2,21.3,35.9,31,2.7,5.5-.5,3.8-4,2.7-18.5-6.4-35.1-17.7-54.9-21.2-43.4-7.5-64.7,22.9-59.9,63.4,5.9,50.3,52,62,95.3,51.3,86.3-21.2,123.5-119.4,163.4-188.6.4-2.1-.5-2.4-2.3-2.9-19.6-6.3-40.4-8.6-60-15.2-57.5-19.4-144.8-73.6-161.9-135.4-12.8-46.6,13.3-96.2,64.3-98.9,35.7-1.9,65.4,10.3,89.2,36.3,41.3,45,58.4,110.9,81.2,166.7,1.9,4.7,3.8,9.3,6,13.9ZM272.6,243.9c-38.2,2.8-61.6,36.9-51.8,73.9,15.9,60.3,85.5,97.6,138.9,119.5,15.3,6.3,37.1,14.6,53.5,15.5,2,.1,5.4.6,4.9-2.3-7.7-30.5-19.1-59.7-31.2-88.6-16.8-40.1-36.8-78.3-73.3-103.7-13.6-9.5-23.8-15.5-41.1-14.2ZM538.9,472.9c-5.8-18.6-12.7-36.9-16.9-55.9-4.6-21.1-9.6-47.6-10.6-68.9s.1-7.3,0-10.9.3-1.6-.4-1.5c-4.7,23-17.9,42.7-27.3,63.8l-32.1,61.6c18.8,3.5,37.6,7.2,56.6,9.2,1.6.2,3.2-.1,4.8,0,8.7.8,17.4,1.7,26,2.6ZM511.4,687.6c.5-5.6,1.6-11.2,2.2-16.8,1.1-10.6,1.3-21.3,2.7-31.9,3.2-23.7,8.5-53.2,16.1-75.7,5-15,13.4-31,17.6-45.8.9-3.3,1.5-4.4.6-7.9-3.7-15.2-24.6-19.3-37.8-21.3s-38.2-5.6-55-6.2c-3,0-5.9,0-6.3,3.7-.3,2.7,1.1,7.6,1.9,10.4,4.4,15.7,12.4,32.8,17.8,48.6,15.5,45.3,27.1,91.6,38.6,138l1.6,4.7ZM577.4,501.4c-1.8,9.4.5,17.9,4.4,26.3,11.1,24.3,27.6,50.7,42.2,73.3,23,35.6,44.3,75,93.5,69.5,45.4-5,71.4-44.8,58.1-88.6-17.2-56.7-66.5-74.7-121-77.9-17.9-1-36.5.3-54.2-.9-7.5-.5-15.3-3.5-22.9-1.7Z"/>
</svg>
